<svg width="101" height="138" viewBox="0 0 101 138" fill="none" xmlns="http://www.w3.org/2000/svg">
<path d="M46.4674 26.0147L47.944 16.1417H41.6684L52.7134 0.671875H53.3956L51.9486 11.8397H59.3316L47.1496 26.0147H46.4674Z" fill="#426368"/>
<path d="M14.213 26.0147L15.6896 16.1417H9.41398L20.459 0.671875H21.1412L19.6941 11.8397H27.0771L14.8951 26.0147H14.213Z" fill="#426368"/>
<path d="M78.7218 26.0147L80.1984 16.1417H73.9229L84.9679 0.671875H85.6501L84.203 11.8397H91.586L79.404 26.0147H78.7218Z" fill="#426368"/>
<path d="M13.7638 120.933C8.80796 115.565 5.08855 109.177 2.86727 102.217L20.6939 96.5277C22.0839 100.883 24.4113 104.88 27.5124 108.239L13.7638 120.933Z" fill="#426368"/>
<path d="M99.261 75.9528C100.877 83.0774 100.913 90.4696 99.3647 97.6092L81.077 93.6442C82.0456 89.1766 82.0235 84.5509 81.0121 80.0927L99.261 75.9528Z" fill="#426368"/>
<path d="M65.8109 39.4166C72.7655 41.6537 79.1454 45.3876 84.5017 50.3557L71.7765 64.0754C68.4248 60.9666 64.4326 58.6301 60.0808 57.2303L65.8109 39.4166Z" fill="#426368"/>
<path d="M87.069 52.9161C92.0512 58.2593 95.802 64.6293 98.0574 71.578L80.259 77.3552C78.8476 73.007 76.5006 69.021 73.383 65.6775L87.069 52.9161Z" fill="#426368"/>
<path d="M98.1609 102.129C95.9526 109.093 92.245 115.488 87.2992 120.865L73.527 108.196C76.6219 104.832 78.9419 100.83 80.3237 96.4723L98.1609 102.129Z" fill="#426368"/>
<path d="M1.67789 97.8035C0.101513 90.6701 0.10748 83.2778 1.69537 76.1469L19.9606 80.2142C18.967 84.6763 18.9632 89.302 19.9497 93.7658L1.67789 97.8035Z" fill="#426368"/>
<path d="M2.68364 72.3998C4.81904 65.4133 8.45949 58.9796 13.3489 53.5514L27.2527 66.0751C24.1932 69.4717 21.9152 73.4976 20.579 77.8694L2.68364 72.3998Z" fill="#426368"/>
<path d="M16.3067 50.5343C21.6368 45.5383 27.9971 41.771 34.9399 39.4975L40.7633 57.2809C36.4189 58.7035 32.4389 61.0609 29.1036 64.1872L16.3067 50.5343Z" fill="#426368"/>
<path d="M39.8533 38.1613C46.9913 36.6057 54.3835 36.6332 61.5097 38.2418L57.3893 56.4952C52.9301 55.4886 48.3044 55.4714 43.8378 56.4448L39.8533 38.1613Z" fill="#426368"/>
<path d="M50.8086 66.0269L54.8179 83.1559H46.7992L50.8086 66.0269Z" fill="#426368"/>
<path d="M46.7577 83.0593C46.7577 83.7709 46.8625 84.4756 47.0661 85.1331C47.2696 85.7906 47.568 86.388 47.9442 86.8913C48.3203 87.3945 48.7669 87.7937 49.2584 88.066C49.7498 88.3383 50.2766 88.4785 50.8085 88.4785C51.3405 88.4785 51.8673 88.3383 52.3587 88.066C52.8502 87.7937 53.2968 87.3945 53.6729 86.8913C54.0491 86.388 54.3475 85.7906 54.551 85.1331C54.7546 84.4756 54.8594 83.7709 54.8594 83.0593L50.8085 83.0593L46.7577 83.0593Z" fill="#426368"/>
</svg>
