<svg width="101" height="95" viewBox="0 0 101 95" fill="none" xmlns="http://www.w3.org/2000/svg">
<path d="M93.0739 18.3666L93.1474 18.2769L72.127 1.17694L65.5056 9.3786L76.3679 18.2136C73.6733 19.8581 71.5337 22.2788 70.2272 25.1609C68.9207 28.043 68.5079 31.2532 69.0423 34.3741C69.8306 39.1188 73.0835 43.2197 77.2928 45.5155C81.9961 48.0858 86.1214 47.8483 89.7894 46.5394L89.7106 79.1666C89.7169 80.0405 89.5062 80.9022 89.0975 81.6738C88.6888 82.4453 88.095 83.1024 87.3699 83.5854C86.6447 84.0685 85.8111 84.3624 84.9444 84.4405C84.0776 84.5186 83.2052 84.3784 82.406 84.0327C81.7804 83.7632 81.2128 83.3743 80.7349 82.8874C79.7557 81.8987 79.2059 80.561 79.2057 79.1666L79.3265 68.611C79.3318 66.5336 78.9273 64.4757 78.1363 62.5561C77.3452 60.6366 76.1834 58.8935 74.7178 57.4274C73.2538 55.9539 71.5149 54.7848 69.6005 53.9869C67.6861 53.1891 65.6339 52.7782 63.5612 52.7777H58.3061V10.5555C58.3061 7.75604 57.1988 5.07119 55.2278 3.09165C53.2567 1.1121 50.5834 0 47.7959 0H11.0102C8.22272 0 5.54941 1.1121 3.57837 3.09165C1.60732 5.07119 0.5 7.75604 0.5 10.5555V84.4443C0.5 87.2438 1.60732 89.9287 3.57837 91.9082C5.54941 93.8878 8.22272 94.9999 11.0102 94.9999H47.7959C50.5834 94.9999 53.2567 93.8878 55.2278 91.9082C57.1988 89.9287 58.3061 87.2438 58.3061 84.4443V63.3333H63.5612C64.2794 63.3333 64.9643 63.4705 65.616 63.7449C66.866 64.2957 67.8627 65.3004 68.4064 66.558C68.6782 67.208 68.8176 67.906 68.8163 68.611L68.6902 79.1666C68.6902 81.3093 69.1054 83.3835 69.9304 85.331C70.7239 87.2257 71.8643 88.9199 73.2989 90.3502C74.7577 91.8308 76.4956 93.0045 78.4112 93.8029C80.3268 94.6012 82.3816 95.0082 84.4555 94.9999C86.5961 94.9999 88.6421 94.5847 90.5935 93.7543C92.4748 92.9627 94.1669 91.8174 95.5911 90.3713C97.063 88.9045 98.2301 87.1587 99.0249 85.2353C99.8196 83.3118 100.226 81.249 100.221 79.1666L100.347 31.6666C100.34 29.0155 99.6709 26.4084 98.4001 24.0846C97.1294 21.7608 95.298 19.7947 93.0739 18.3666ZM47.7959 26.3889H11.0102V10.5555H47.7959V26.3889ZM84.5816 36.9444C83.1879 36.9444 81.8512 36.3883 80.8657 35.3986C79.8802 34.4088 79.3265 33.0664 79.3265 31.6666C79.3265 30.2669 79.8802 28.9245 80.8657 27.9347C81.8512 26.9449 83.1879 26.3889 84.5816 26.3889C85.9754 26.3889 87.312 26.9449 88.2976 27.9347C89.2831 28.9245 89.8367 30.2669 89.8367 31.6666C89.8367 33.0664 89.2831 34.4088 88.2976 35.3986C87.312 36.3883 85.9754 36.9444 84.5816 36.9444Z" fill="#6F6F6F"/>
</svg>
