<svg width="101" height="100" viewBox="0 0 101 100" fill="none" xmlns="http://www.w3.org/2000/svg">
<path d="M94.9444 55.5556C98 55.5556 100.5 53.0556 100.5 50C100.5 46.9444 98 44.4444 94.9444 44.4444H89.3889V11.1111H94.9444C98 11.1111 100.5 8.61111 100.5 5.55556C100.5 2.5 98 0 94.9444 0H6.05556C3 0 0.5 2.5 0.5 5.55556C0.5 8.61111 3 11.1111 6.05556 11.1111H11.6111V44.4444H6.05556C3 44.4444 0.5 46.9444 0.5 50C0.5 53.0556 3 55.5556 6.05556 55.5556H11.6111V88.8889H6.05556C3 88.8889 0.5 91.3889 0.5 94.4444C0.5 97.5 3 100 6.05556 100H94.9444C98 100 100.5 97.5 100.5 94.4444C100.5 91.3889 98 88.8889 94.9444 88.8889H89.3889V55.5556H94.9444ZM50.5 72.2222C41.2778 72.2222 33.8333 64.8889 33.8333 55.8333C33.8333 48.6111 36.6111 46.5556 50.5 30.5556C64.2222 46.4444 67.1667 48.5556 67.1667 55.8333C67.1667 64.8889 59.7222 72.2222 50.5 72.2222Z" fill="#6F6F6F"/>
</svg>
