<svg width="203" height="113" viewBox="0 0 203 113" fill="none" xmlns="http://www.w3.org/2000/svg">
<path d="M179.759 36.0378C186.632 36.0378 192.204 30.4663 192.204 23.5934C192.204 16.7205 186.632 11.1489 179.759 11.1489C172.886 11.1489 167.315 16.7205 167.315 23.5934C167.315 30.4663 172.886 36.0378 179.759 36.0378Z" stroke="#405752" stroke-width="5" stroke-linecap="round" stroke-linejoin="round"/>
<path d="M179.759 42.2595V44.3336M198.426 23.5928H200.5M179.759 4.92613V2.85205M161.093 23.5928H159.018" stroke="#405752" stroke-width="5" stroke-linecap="round" stroke-linejoin="round"/>
<path d="M193.241 37.0737L194.278 38.1108M193.241 10.1108L194.278 9.07373M166.278 10.1108L165.241 9.07373M166.278 37.0737L165.241 38.1108" stroke="#405752" stroke-width="5" stroke-linecap="round" stroke-linejoin="round"/>
<path d="M138.08 72.7678H121.107V51.8014C121.107 50.1465 119.767 48.8062 118.112 48.8062H100.141C98.4857 48.8062 97.1453 50.1465 97.1453 51.8014V60.787H89.1581V50.803C89.1581 49.6997 88.2645 48.8062 87.1613 48.8062H85.1645C84.0613 48.8062 83.1677 49.6997 83.1677 50.803V60.787H75.1805V50.803C75.1805 49.6997 74.2869 48.8062 73.1837 48.8062H71.1868C70.0836 48.8062 69.19 49.6997 69.19 50.803V60.787H64.198C62.5432 60.787 61.2028 62.1273 61.2028 63.7822V108.71C61.2028 110.916 62.9912 112.704 65.1964 112.704H137.081C139.287 112.704 141.075 110.916 141.075 108.71V75.763C141.075 74.1082 139.733 72.7678 138.08 72.7678ZM77.1773 99.2255C77.1773 100.053 76.5071 100.723 75.6797 100.723H70.6876C69.8602 100.723 69.19 100.053 69.19 99.2255V94.2335C69.19 93.4061 69.8602 92.7359 70.6876 92.7359H75.6797C76.5071 92.7359 77.1773 93.4061 77.1773 94.2335V99.2255ZM77.1773 87.2447C77.1773 88.0721 76.5071 88.7423 75.6797 88.7423H70.6876C69.8602 88.7423 69.19 88.0721 69.19 87.2447V82.2526C69.19 81.4252 69.8602 80.755 70.6876 80.755H75.6797C76.5071 80.755 77.1773 81.4252 77.1773 82.2526V87.2447ZM77.1773 75.2638C77.1773 76.0913 76.5071 76.7614 75.6797 76.7614H70.6876C69.8602 76.7614 69.19 76.0913 69.19 75.2638V70.2718C69.19 69.4444 69.8602 68.7742 70.6876 68.7742H75.6797C76.5071 68.7742 77.1773 69.4444 77.1773 70.2718V75.2638ZM93.1517 99.2255C93.1517 100.053 92.4815 100.723 91.6541 100.723H86.6621C85.8347 100.723 85.1645 100.053 85.1645 99.2255V94.2335C85.1645 93.4061 85.8347 92.7359 86.6621 92.7359H91.6541C92.4815 92.7359 93.1517 93.4061 93.1517 94.2335V99.2255ZM93.1517 87.2447C93.1517 88.0721 92.4815 88.7423 91.6541 88.7423H86.6621C85.8347 88.7423 85.1645 88.0721 85.1645 87.2447V82.2526C85.1645 81.4252 85.8347 80.755 86.6621 80.755H91.6541C92.4815 80.755 93.1517 81.4252 93.1517 82.2526V87.2447ZM93.1517 75.2638C93.1517 76.0913 92.4815 76.7614 91.6541 76.7614H86.6621C85.8347 76.7614 85.1645 76.0913 85.1645 75.2638V70.2718C85.1645 69.4444 85.8347 68.7742 86.6621 68.7742H91.6541C92.4815 68.7742 93.1517 69.4444 93.1517 70.2718V75.2638ZM113.12 87.2447C113.12 88.0721 112.45 88.7423 111.622 88.7423H106.63C105.803 88.7423 105.133 88.0721 105.133 87.2447V82.2526C105.133 81.4252 105.803 80.755 106.63 80.755H111.622C112.45 80.755 113.12 81.4252 113.12 82.2526V87.2447ZM113.12 75.2638C113.12 76.0913 112.45 76.7614 111.622 76.7614H106.63C105.803 76.7614 105.133 76.0913 105.133 75.2638V70.2718C105.133 69.4444 105.803 68.7742 106.63 68.7742H111.622C112.45 68.7742 113.12 69.4444 113.12 70.2718V75.2638ZM113.12 63.283C113.12 64.1104 112.45 64.7806 111.622 64.7806H106.63C105.803 64.7806 105.133 64.1104 105.133 63.283V58.291C105.133 57.4636 105.803 56.7934 106.63 56.7934H111.622C112.45 56.7934 113.12 57.4636 113.12 58.291V63.283ZM133.088 99.2255C133.088 100.053 132.418 100.723 131.59 100.723H126.598C125.771 100.723 125.101 100.053 125.101 99.2255V94.2335C125.101 93.4061 125.771 92.7359 126.598 92.7359H131.59C132.418 92.7359 133.088 93.4061 133.088 94.2335V99.2255ZM133.088 87.2447C133.088 88.0721 132.418 88.7423 131.59 88.7423H126.598C125.771 88.7423 125.101 88.0721 125.101 87.2447V82.2526C125.101 81.4252 125.771 80.755 126.598 80.755H131.59C132.418 80.755 133.088 81.4252 133.088 82.2526V87.2447Z" fill="#405752"/>
<path d="M197.241 66.982H184.206V57.1843C184.206 56.3182 183.863 55.4875 183.252 54.875C182.64 54.2625 181.812 53.9185 180.947 53.9185H154.877C154.013 53.9185 153.184 54.2625 152.573 54.875C151.962 55.4875 151.618 56.3182 151.618 57.1843V80.0456H138.583C137.719 80.0456 136.89 80.3896 136.279 81.0021C135.668 81.6146 135.324 82.4453 135.324 83.3114V109.439C135.324 110.305 135.668 111.135 136.279 111.748C136.89 112.36 137.719 112.704 138.583 112.704H197.241C198.106 112.704 198.934 112.36 199.546 111.748C200.157 111.135 200.5 110.305 200.5 109.439V70.2479C200.5 69.3817 200.157 68.551 199.546 67.9386C198.934 67.3261 198.106 66.982 197.241 66.982ZM148.359 106.173H141.842V99.6409H148.359V106.173ZM148.359 93.1091H141.842V86.5773H148.359V93.1091ZM164.653 106.173H158.136V99.6409H164.653V106.173ZM164.653 93.1091H158.136V86.5773H164.653V93.1091ZM164.653 80.0456H158.136V73.5138H164.653V80.0456ZM164.653 66.982H158.136V60.4502H164.653V66.982ZM177.689 106.173H171.171V99.6409H177.689V106.173ZM177.689 93.1091H171.171V86.5773H177.689V93.1091ZM177.689 80.0456H171.171V73.5138H177.689V80.0456ZM177.689 66.982H171.171V60.4502H177.689V66.982ZM193.982 106.173H187.465V99.6409H193.982V106.173ZM193.982 93.1091H187.465V86.5773H193.982V93.1091ZM193.982 80.0456H187.465V73.5138H193.982V80.0456Z" fill="#405752"/>
<path d="M0.5 105.17V67.5004C0.5 65.4286 1.24448 63.6556 2.73344 62.1814C4.2224 60.7073 6.01017 59.969 8.09674 59.9665H23.2902V55.5403C23.2902 54.5357 23.4801 53.5777 23.86 52.666C24.2398 51.7544 24.7779 50.9546 25.4743 50.2665L29.2726 46.4995C30.7287 45.0555 32.5329 44.3335 34.6853 44.3335C36.8377 44.3335 38.6419 45.0555 40.098 46.4995L43.8964 50.2665C44.5927 50.9571 45.1308 51.7582 45.5107 52.6698C45.8905 53.5814 46.0804 54.5382 46.0804 55.5403V75.0344H61.2739C63.363 75.0344 65.152 75.7727 66.641 77.2493C68.1299 78.726 68.8732 80.499 68.8706 82.5683V105.17C68.8706 107.242 68.1274 109.016 66.641 110.493C65.1545 111.97 63.3655 112.707 61.2739 112.704H8.09674C6.00763 112.704 4.21987 111.967 2.73344 110.493C1.24701 109.019 0.502532 107.245 0.5 105.17ZM8.09674 105.17H15.6935V97.6362H8.09674V105.17ZM8.09674 90.1023H15.6935V82.5683H8.09674V90.1023ZM8.09674 75.0344H15.6935V67.5004H8.09674V75.0344ZM30.8869 105.17H38.4837V97.6362H30.8869V105.17ZM30.8869 90.1023H38.4837V82.5683H30.8869V90.1023ZM30.8869 75.0344H38.4837V67.5004H30.8869V75.0344ZM30.8869 59.9665H38.4837V52.4325H30.8869V59.9665ZM53.6771 105.17H61.2739V97.6362H53.6771V105.17ZM53.6771 90.1023H61.2739V82.5683H53.6771V90.1023Z" fill="#405752"/>
</svg>
