<svg width="75" height="96" viewBox="0 0 75 96" fill="none" xmlns="http://www.w3.org/2000/svg">
<path d="M67.5854 43.7333C66.3587 42.1333 64.8654 40.7467 63.4787 39.36C59.9054 36.16 55.852 33.8667 52.4387 30.5067C44.492 22.72 42.732 9.86667 47.7987 0C42.732 1.22667 38.3054 4 34.5187 7.04C20.7054 18.1333 15.2654 37.7067 21.772 54.5067C21.9854 55.04 22.1987 55.5733 22.1987 56.2667C22.1987 57.44 21.3987 58.5067 20.332 58.9333C19.1054 59.4667 17.8254 59.1467 16.812 58.2933C16.5093 58.0398 16.2562 57.7324 16.0654 57.3867C10.0387 49.76 9.0787 38.8267 13.132 30.08C4.22537 37.3333 -0.627964 49.6 0.0653693 61.1733C0.385369 63.84 0.705369 66.5067 1.61204 69.1733C2.3587 72.3733 3.7987 75.5733 5.3987 78.4C11.1587 87.6267 21.132 94.24 31.852 95.5733C43.2654 97.0133 55.4787 94.9333 64.2254 87.04C73.9854 78.1867 77.3987 64 72.3854 51.84L71.692 50.4533C70.572 48 67.5854 43.7333 67.5854 43.7333ZM50.732 77.3333C49.2387 78.6133 46.7854 80 44.8654 80.5333C38.892 82.6667 32.9187 79.68 29.3987 76.16C35.7454 74.6667 39.532 69.9733 40.652 65.2267C41.5587 60.96 39.852 57.44 39.1587 53.3333C38.5187 49.3867 38.6254 46.0267 40.0654 42.3467C41.0787 44.3733 42.1454 46.4 43.4254 48C47.532 53.3333 53.9854 55.68 55.372 62.9333C55.5854 63.68 55.692 64.4267 55.692 65.2267C55.852 69.6 53.932 74.4 50.732 77.3333Z" fill="#426368"/>
</svg>
