<svg width="101" height="89" viewBox="0 0 101 89" fill="none" xmlns="http://www.w3.org/2000/svg">
<path d="M91.9498 10.3535C89.9764 2.90243 82.3773 -1.51238 74.9858 0.476904L72.32 1.19235C69.36 1.99504 67.6117 5.06622 68.4079 8.03269L72.6489 23.9819L53.902 28.8853L52.8114 25.7268C52.0325 23.4933 49.9379 21.9926 47.5838 21.9926C45.2296 21.9926 43.135 23.4933 42.3561 25.7268L40.0019 32.5323L17.1178 38.5001V31.7645C17.1178 29.4437 15.2656 27.5765 12.9633 27.5765C10.6611 27.5765 8.8089 29.4437 8.8089 31.7645V77.8321H6.03927C2.97536 77.8321 0.5 80.3274 0.5 83.416C0.5 86.5047 2.97536 89 6.03927 89H94.6675C97.7314 89 100.207 86.5047 100.207 83.416C100.207 80.3274 97.7314 77.8321 94.6675 77.8321H70.9006L59.3547 44.5901L48.5877 47.3996L53.348 61.0802H41.8195L46.372 47.9928L33.4586 51.3607L24.2669 77.8321H17.1178V50.0519L75.5224 34.7833L79.8846 51.1862C80.6809 54.1701 83.7101 55.9325 86.6702 55.1298L89.3533 54.4144C96.7447 52.4251 101.124 44.7646 99.1509 37.3135L91.9498 10.3535ZM36.0032 77.8321L37.942 72.2481H57.2255L59.1643 77.8321H36.0032Z" fill="#527F98"/>
</svg>
