<svg width="101" height="75" viewBox="0 0 101 75" fill="none" xmlns="http://www.w3.org/2000/svg">
<path d="M60.5 1.68405e-09C61.7943 -3.35683e-05 63.0381 0.501825 63.97 1.40004L64.405 1.87505L82.9 25.0006H85.5C89.3261 25.0004 93.0076 26.4623 95.7913 29.0872C98.575 31.712 100.251 35.3014 100.475 39.121L100.5 40.001V60.0015C100.5 61.3276 99.9732 62.5994 99.0355 63.5371C98.0979 64.4748 96.8261 65.0016 95.5 65.0016H89.645C88.6099 67.9259 86.694 70.4575 84.1609 72.2481C81.6278 74.0386 78.602 75 75.5 75C72.398 75 69.3722 74.0386 66.8391 72.2481C64.306 70.4575 62.3901 67.9259 61.355 65.0016H39.645C38.6099 67.9259 36.694 70.4575 34.1609 72.2481C31.6278 74.0386 28.602 75 25.5 75C22.398 75 19.3722 74.0386 16.8391 72.2481C14.306 70.4575 12.3901 67.9259 11.355 65.0016H5.5C4.17392 65.0016 2.90215 64.4748 1.96447 63.5371C1.02678 62.5994 0.5 61.3276 0.5 60.0015V30.0008L0.535 29.4157L0.575001 29.1357L0.66 28.7457L0.72 28.5657L0.79 28.3157L10.86 3.14508C11.2307 2.21725 11.8708 1.42174 12.6978 0.861163C13.5249 0.300582 14.5009 0.000632402 15.5 1.68405e-09H60.5ZM25.5 55.0014C24.1739 55.0014 22.9021 55.5282 21.9645 56.4659C21.0268 57.4036 20.5 58.6754 20.5 60.0015C20.5 61.3276 21.0268 62.5994 21.9645 63.5371C22.9021 64.4748 24.1739 65.0016 25.5 65.0016C26.8261 65.0016 28.0979 64.4748 29.0355 63.5371C29.9732 62.5994 30.5 61.3276 30.5 60.0015C30.5 58.6754 29.9732 57.4036 29.0355 56.4659C28.0979 55.5282 26.8261 55.0014 25.5 55.0014ZM75.5 55.0014C74.1739 55.0014 72.9021 55.5282 71.9645 56.4659C71.0268 57.4036 70.5 58.6754 70.5 60.0015C70.5 61.3276 71.0268 62.5994 71.9645 63.5371C72.9021 64.4748 74.1739 65.0016 75.5 65.0016C76.8261 65.0016 78.0979 64.4748 79.0355 63.5371C79.9732 62.5994 80.5 61.3276 80.5 60.0015C80.5 58.6754 79.9732 57.4036 79.0355 56.4659C78.0979 55.5282 76.8261 55.0014 75.5 55.0014ZM45.5 10.0003H18.88L12.88 25.0006H45.5V10.0003ZM58.1 10.0003H55.5V25.0006H70.1L58.1 10.0003Z" fill="#6F6F6F"/>
</svg>
