<svg width="96" height="87" viewBox="0 0 96 87" fill="none" xmlns="http://www.w3.org/2000/svg">
<path d="M19.2924 7.48581C19.2596 6.5145 19.4226 5.54652 19.7718 4.63954C20.121 3.73257 20.6491 2.90517 21.3248 2.20664C22.0006 1.50811 22.81 0.952743 23.7048 0.573639C24.5997 0.194534 25.5618 -0.000553309 26.5336 1.17868e-06H50.353C54.2853 1.17868e-06 57.4983 3.13627 57.575 7.07819C57.7429 15.5567 58.8602 45.7781 66.1111 76.7284H70.9066C66.2981 57.0475 64.1689 37.664 63.1858 23.9776H69.2186C73.5633 23.9776 76.6756 27.6846 76.5557 31.6265C76.3927 37.1941 76.8435 52.8898 84.9335 76.7284H91.1149C92.3868 76.7284 93.6065 77.2336 94.5059 78.1329C95.4052 79.0323 95.9104 80.252 95.9104 81.5239C95.9104 82.7957 95.4052 84.0155 94.5059 84.9148C93.6065 85.8142 92.3868 86.3194 91.1149 86.3194H4.79552C3.52367 86.3194 2.30391 85.8142 1.40458 84.9148C0.505241 84.0155 0 82.7957 0 81.5239C0 80.252 0.505241 79.0323 1.40458 78.1329C2.30391 77.2336 3.52367 76.7284 4.79552 76.7284H10.8235C19.7192 46.1137 19.5657 16.1369 19.2924 7.48581Z" fill="#6F6F6F"/>
</svg>
